/vscmnt/brussel_pixiu_data/_data_brussel/112/vsc11236/PredSimResults/SUBJ10mtu3D/worker2.mot
version=1
nRows=4
nColumns=50
inDegrees=yes
endheader
                time	         pelvis_tilt	         pelvis_list	     pelvis_rotation	           pelvis_tx	           pelvis_ty	           pelvis_tz	       hip_flexion_r	     hip_adduction_r	      hip_rotation_r	        knee_angle_r	       ankle_angle_r	         mtp_angle_r	       hip_flexion_l	     hip_adduction_l	      hip_rotation_l	        knee_angle_l	       ankle_angle_l	         mtp_angle_l	    lumbar_extension	      lumbar_bending	     lumbar_rotation	 ercspn_r/activation	 intobl_r/activation	 extobl_r/activation	    abd_r/activation	    add_r/activation	hamstrings_r/activation	bifemsh_r/activation	glut_max_r/activation	iliopsoas_r/activation	rect_fem_r/activation	  vasti_r/activation	gastroc_r/activation	 soleus_r/activation	tib_ant_r/activation	 ercspn_l/activation	 intobl_l/activation	 extobl_l/activation	    abd_l/activation	    add_l/activation	hamstrings_l/activation	bifemsh_l/activation	glut_max_l/activation	iliopsoas_l/activation	rect_fem_l/activation	  vasti_l/activation	gastroc_l/activation	 soleus_l/activation	tib_ant_l/activation	
          1.52470045	         -0.55212717	          3.39658093	         -6.71600040	          1.84488754	          0.92503037	          0.00860762	         18.43937926	          6.34703114	         17.02983196	        -36.70322003	        -17.65264865	         12.49022550	         33.99213143	          9.48982283	          6.69284887	        -67.28064902	        -26.61958662	          0.82177027	        -12.64194773	          2.23814368	         -6.79440178	          0.07029957	          0.07379317	          0.15752012	          0.33374297	          0.25727102	          0.09849199	          0.04283103	          0.01163042	          0.24595795	          0.35261472	          0.04354086	          0.03014677	          0.02231126	          0.60268594	          0.01035944	          0.00999999	          0.12603460	          0.02473725	          0.02178974	          0.00999999	          0.07500695	          0.08023606	          0.65548368	          0.45012500	          0.03102340	          0.00999999	          0.00999999	          0.14836188	
          1.53994745	         -0.39442761	          3.04256642	         -7.92118799	          1.86034773	          0.92129566	          0.00550241	         18.02689456	          6.18218096	         15.95521744	        -36.02339195	        -17.23567358	          9.92254256	         33.96090967	         10.41634230	          8.94451308	        -66.76688025	        -25.20787309	          0.69165782	        -13.07484994	          3.49882532	         -6.94984904	          0.05605504	          0.05884075	          0.13215358	          0.26611794	          0.20514120	          0.07853495	          0.03415235	          0.00999999	          0.19612046	          0.28116579	          0.21439130	          0.02403825	          0.02459773	          0.48056606	          0.00999999	          0.06712975	          0.10049670	          0.01972484	          0.05108566	          0.00999999	          0.05980858	          0.07951315	          0.65707935	          0.49778697	          0.02473725	          0.00999999	          0.00999999	          0.16256607	
          1.55519446	         -0.21210996	          2.69103282	         -9.01993394	          1.87650225	          0.91575324	          0.00243931	         16.90543601	          6.01165418	         14.91716506	        -36.45393353	        -15.30053348	          9.81070840	         34.16909040	         11.25741408	         11.05906398	        -66.66162682	        -23.82148254	          0.58506621	        -13.44205102	          4.73050427	         -7.09196137	          0.04469683	          0.04691808	          0.10537582	          0.25248354	          0.16357425	          0.06262172	          0.02723219	          0.01394571	          0.15638134	          0.22419427	          0.29480474	          0.04879388	          0.17734941	          0.38319085	          0.00999999	          0.07497896	          0.08013345	          0.01572807	          0.08733500	          0.00999999	          0.14499717	          0.09895149	          0.64843497	          0.53741497	          0.01972484	          0.00999999	          0.00999999	          0.18189813	
          1.57044146	         -0.01553854	          2.23852399	        -10.00059479	          1.89327049	          0.90917215	         -0.00068812	         14.94502023	          5.77889184	         14.26520454	        -35.97415035	        -13.66012980	         12.91290537	         34.49971727	         11.97229854	         13.06285564	        -66.75798029	        -22.39362302	          0.50016072	        -13.76511351	          6.06134358	         -7.18482106	          0.03564009	          0.03741125	          0.08402393	          0.20533765	          0.13042984	          0.04993293	          0.02171424	          0.05674919	          0.12469441	          0.17876667	          0.25385843	          0.03890697	          0.21263366	          0.30554639	          0.01796739	          0.09946991	          0.06389632	          0.01254116	          0.13141987	          0.00999999	          0.24299209	          0.08393031	          0.62558741	          0.57713944	          0.01572807	          0.00999999	          0.00999999	          0.20034491	
